<svg width="24" height="24" viewBox="0 0 24 24" fill="none" xmlns="http://www.w3.org/2000/svg">
<g clip-path="url(#clip0)">
<path d="M12 16C14.2091 16 16 14.2091 16 12C16 9.79086 14.2091 8 12 8C9.79086 8 8 9.79086 8 12C8 14.2091 9.79086 16 12 16Z" stroke="#E6E5E2" stroke-width="2" stroke-linecap="round" stroke-linejoin="round"/>
<path d="M30 13.9995V23.9995C30 25.5908 30.6321 27.1169 31.7574 28.2421C32.8826 29.3673 34.4087 29.9995 36 29.9995C37.5913 29.9995 39.1174 29.3673 40.2426 28.2421C41.3679 27.1169 42 25.5908 42 23.9995V21.9995C41.9997 17.4855 40.4725 13.1044 37.6665 9.56855C34.8606 6.03266 30.9411 3.54994 26.5453 2.52409C22.1495 1.49823 17.5359 1.98957 13.4547 3.91822C9.37354 5.84687 6.06481 9.0994 4.06653 13.1469C2.06825 17.1945 1.49795 21.799 2.44835 26.2117C3.39876 30.6245 5.81397 34.5859 9.30127 37.452C12.7886 40.3181 17.1429 41.9202 21.6561 41.9978C26.1694 42.0754 30.5762 40.624 34.16 37.8795" stroke="#E6E5E2" stroke-width="2" stroke-linecap="round" stroke-linejoin="round"/>
</g>
<defs>
<clipPath id="clip0">
<rect width="24" height="24" fill="white"/>
</clipPath>
</defs>
</svg>
