<svg width="50" height="43" viewBox="0 0 50 43" fill="none" xmlns="http://www.w3.org/2000/svg">
<path d="M25 2.6875C37.0605 2.6875 46.875 11.1279 46.875 21.5C46.875 31.8721 37.0605 40.3125 25 40.3125C12.9395 40.3125 3.125 31.8721 3.125 21.5C3.125 11.1279 12.9395 2.6875 25 2.6875ZM25 0C11.1938 0 0 9.62671 0 21.5C0 33.3733 11.1938 43 25 43C38.8062 43 50 33.3733 50 21.5C50 9.62671 38.8062 0 25 0ZM38.9374 28.6886L38.797 28.3211C38.4674 27.4761 37.381 26.5942 36.38 26.358L32.6844 25.4893C31.6834 25.2557 30.2552 25.5706 29.5198 26.2031L28.1831 27.3527C23.3247 26.2215 19.5131 22.9435 18.2008 18.7653L19.5375 17.6157C20.2699 16.9858 20.6361 15.7576 20.3646 14.8941L19.3573 11.7158C19.0857 10.855 18.0542 9.92065 17.0716 9.63721L16.6504 9.51644C15.6646 9.23299 14.2578 9.51904 13.5254 10.1516L11.5234 11.8733C11.1664 12.1777 10.9375 13.0517 10.9375 13.0544C10.8703 18.5186 13.3606 23.7808 17.8528 27.6466C22.3328 31.4994 28.4303 33.6385 34.7626 33.5911C34.7962 33.5911 35.843 33.3996 36.2 33.0924L38.202 31.3708C38.9344 30.7435 39.2639 29.5336 38.9374 28.6886Z" fill="#E6E5E2"/>
</svg>
