<svg width="46" height="48" viewBox="0 0 46 48" fill="none" xmlns="http://www.w3.org/2000/svg">
<g filter="url(#filter0_d)">
<path d="M21.9975 0.00606459C18.7875 0.0448146 11.8863 0.572315 8.02626 4.11356C5.15501 6.95856 4.15251 11.1648 4.03501 16.3661C3.93751 21.5486 3.82001 31.2811 13.2013 33.9311V37.9673C13.2013 37.9673 13.1425 39.5823 14.21 39.9136C15.525 40.3298 16.2738 39.0873 17.5238 37.7523L19.855 35.1161C26.2738 35.6498 31.19 34.4198 31.7563 34.2373C33.0588 33.8211 40.395 32.8836 41.5938 23.1498C42.8238 13.0973 40.995 6.76356 37.6938 3.89856H37.6738C36.6775 2.98106 32.6738 0.0635646 23.7288 0.0310646C23.7288 0.0310646 23.065 -0.0139354 21.9975 0.00481459V0.00606459ZM22.1075 2.83231C23.0188 2.82606 23.5725 2.86481 23.5725 2.86481C31.1438 2.88481 34.7575 5.16356 35.61 5.93106C38.39 8.31356 39.8225 14.0236 38.7738 22.4161C37.7775 30.5536 31.8275 31.0686 30.7263 31.4198C30.2575 31.5698 25.9275 32.6373 20.4725 32.2861C20.4725 32.2861 16.41 37.1886 15.14 38.4511C14.9388 38.6723 14.7038 38.7373 14.5538 38.7048C14.3388 38.6523 14.2738 38.3861 14.2863 38.0211L14.325 31.3223C6.36876 29.1223 6.83751 20.8211 6.92251 16.4848C7.02001 12.1486 7.83376 8.60106 10.2563 6.19856C13.5175 3.24981 19.3775 2.85231 22.105 2.83231H22.1075ZM22.7075 7.16731C22.4338 7.16106 22.2063 7.38856 22.2063 7.66231C22.2063 7.94231 22.4338 8.16356 22.7075 8.16356C25.2138 8.11856 27.63 9.06856 29.4263 10.8136C31.2425 12.5773 32.1275 14.9473 32.1613 18.0461C32.1613 18.3198 32.3825 18.5473 32.6625 18.5473V18.5273C32.9363 18.5273 33.1638 18.3061 33.1638 18.0323C33.2875 15.0836 32.1938 12.2186 30.1425 10.0961C28.1638 8.16231 25.6563 7.16606 22.7075 7.16606V7.16731ZM16.1188 8.31356C15.7675 8.26106 15.4025 8.33356 15.0963 8.51481H15.07C14.3925 8.91231 13.7613 9.41357 13.1625 10.0836C12.7063 10.6111 12.4588 11.1448 12.3938 11.6586C12.355 11.9648 12.3813 12.2711 12.4725 12.5636L12.505 12.5836C13.0188 14.0936 13.69 15.5461 14.51 16.9136C15.565 18.8336 16.8663 20.6111 18.3775 22.1998L18.4225 22.2648L18.4938 22.3173L18.5388 22.3698L18.5913 22.4148C20.1863 23.9323 21.9638 25.2336 23.8913 26.3011C26.0913 27.4986 27.4263 28.0648 28.2275 28.2998V28.3123C28.4625 28.3836 28.6763 28.4161 28.8913 28.4161C29.575 28.3636 30.22 28.0911 30.7275 27.6286C31.3788 27.0423 31.8925 26.3986 32.2775 25.7148V25.7023C32.6613 24.9798 32.5313 24.2961 31.9775 23.8336C30.8713 22.8636 29.6663 22.0036 28.3963 21.2623C27.5438 20.7998 26.6775 21.0798 26.3263 21.5486L25.5775 22.4923C25.1938 22.9611 24.4963 22.8961 24.4963 22.8961L24.4763 22.9086C19.275 21.5798 17.8875 16.3136 17.8875 16.3136C17.8875 16.3136 17.8225 15.5973 18.3038 15.2323L19.2413 14.4773C19.69 14.1123 20.0025 13.2473 19.5213 12.3936C18.785 11.1173 17.9263 9.91981 16.9563 8.81231C16.7475 8.55231 16.4488 8.37606 16.1163 8.31106L16.1188 8.31356ZM23.5725 9.79856C22.9088 9.79856 22.9088 10.8011 23.5788 10.8011C25.245 10.8273 26.8338 11.5173 27.9925 12.7148C29.0475 13.8798 29.5938 15.4298 29.49 16.9986C29.4963 17.2723 29.7175 17.4936 29.9913 17.4936L30.0113 17.5198C30.285 17.5198 30.5125 17.2923 30.5125 17.0186C30.5575 15.0323 29.94 13.3661 28.7288 12.0311C27.5113 10.6961 25.8125 9.94731 23.6438 9.79856C23.6175 9.79856 23.5988 9.79856 23.5725 9.79856V9.79856ZM24.3938 12.4936C23.71 12.4736 23.6838 13.4961 24.3613 13.5161C26.0088 13.6011 26.8088 14.4336 26.9138 16.1461C26.92 16.4198 27.1413 16.6348 27.4088 16.6348H27.4288C27.7088 16.6223 27.93 16.3811 27.91 16.1011C27.7925 13.8686 26.575 12.6111 24.4138 12.4948C24.4075 12.4948 24.4013 12.4948 24.3938 12.4948V12.4936Z" fill="#E6E5E2"/>
</g>
<defs>
<filter id="filter0_d" x="-1" y="0" width="48" height="48" filterUnits="userSpaceOnUse" color-interpolation-filters="sRGB">
<feFlood flood-opacity="0" result="BackgroundImageFix"/>
<feColorMatrix in="SourceAlpha" type="matrix" values="0 0 0 0 0 0 0 0 0 0 0 0 0 0 0 0 0 0 127 0"/>
<feOffset dy="4"/>
<feGaussianBlur stdDeviation="2"/>
<feColorMatrix type="matrix" values="0 0 0 0 0 0 0 0 0 0 0 0 0 0 0 0 0 0 0.25 0"/>
<feBlend mode="normal" in2="BackgroundImageFix" result="effect1_dropShadow"/>
<feBlend mode="normal" in="SourceGraphic" in2="effect1_dropShadow" result="shape"/>
</filter>
</defs>
</svg>
